<?xml version="1.0" standalone="no"?>
<!DOCTYPE svg PUBLIC "-//W3C//DTD SVG 20010904//EN"
 "http://www.w3.org/TR/2001/REC-SVG-20010904/DTD/svg10.dtd">
<svg version="1.0" xmlns="http://www.w3.org/2000/svg"
 width="1000.000000pt" height="1000.000000pt" viewBox="0 0 1000.000000 1000.000000"
 preserveAspectRatio="xMidYMid meet">
<metadata>
Created by potrace 1.14, written by Peter Selinger 2001-2017
</metadata>
<g transform="translate(0.000000,1000.000000) scale(0.100000,-0.100000)"
fill="#000000" stroke="none">
<path d="M5679 9606 c-2 -2 -26 -6 -54 -10 -27 -3 -60 -8 -72 -10 -12 -3 -73
-12 -135 -21 -137 -20 -166 -24 -198 -30 -14 -2 -41 -6 -60 -9 -89 -13 -117
-17 -140 -21 -14 -3 -43 -7 -65 -11 -59 -8 -78 -11 -210 -33 -66 -11 -133 -22
-150 -24 -99 -16 -407 -69 -445 -77 -25 -5 -58 -11 -75 -14 -121 -17 -405 -80
-436 -97 -16 -8 -181 -137 -242 -188 -12 -11 -83 -70 -157 -131 -74 -62 -137
-115 -140 -119 -3 -4 -25 -22 -50 -41 -25 -19 -55 -44 -66 -55 -12 -11 -32
-29 -45 -39 -21 -17 -96 -80 -169 -143 -14 -11 -108 -92 -210 -178 -102 -87
-210 -179 -240 -205 -30 -26 -109 -94 -175 -150 -66 -56 -131 -112 -145 -124
-14 -11 -54 -46 -90 -76 -36 -30 -68 -59 -72 -65 -4 -5 -8 -7 -8 -4 0 11 153
577 185 684 28 95 95 349 92 351 -2 2 -60 -37 -131 -87 -142 -100 -296 -206
-401 -277 -38 -26 -75 -51 -82 -57 -6 -5 -48 -35 -92 -65 -45 -30 -119 -81
-164 -112 -45 -32 -90 -63 -100 -70 -11 -7 -25 -17 -33 -23 -10 -8 -86 -409
-109 -577 -2 -15 -6 -35 -9 -45 -3 -10 -8 -40 -11 -67 -3 -27 -7 -51 -9 -55
-2 -3 -7 -27 -10 -53 -5 -38 -40 -247 -61 -367 -2 -14 -7 -43 -10 -63 -3 -20
-12 -66 -18 -103 l-12 -65 -110 96 c-61 54 -139 122 -174 153 -35 31 -74 65
-86 76 -12 11 -33 31 -48 44 l-27 24 0 -472 0 -472 58 5 c31 3 73 7 92 10 39
6 111 15 180 22 25 2 61 6 80 9 100 13 201 25 255 31 33 3 68 8 77 9 9 2 49 7
89 10 40 4 82 9 93 11 12 2 44 6 71 9 47 5 78 8 173 19 20 3 98 12 172 21 74
8 151 17 170 20 19 3 62 7 95 10 33 3 67 7 75 10 8 2 46 6 83 10 37 3 76 8 85
10 9 1 46 6 82 9 36 4 75 8 87 10 12 3 53 8 90 11 94 9 201 30 468 91 11 3 40
9 65 14 25 5 54 11 65 14 11 2 74 16 140 31 66 14 127 28 135 30 35 8 167 36
190 41 14 3 75 16 135 30 61 13 121 27 135 29 14 3 40 9 58 14 38 11 33 15
172 -139 41 -46 86 -95 100 -110 14 -15 62 -67 106 -116 45 -49 93 -100 105
-115 13 -14 63 -68 111 -120 47 -51 109 -119 137 -149 l50 -55 47 50 c26 28
106 112 178 188 72 77 132 143 134 147 4 11 10 9 391 -129 184 -67 338 -118
342 -114 4 4 27 53 52 108 25 55 61 135 81 178 20 43 36 80 36 82 0 11 93 195
98 195 4 0 30 -7 57 -16 117 -36 665 -197 715 -210 30 -8 66 -18 80 -23 14 -5
59 -19 100 -31 41 -12 120 -35 175 -51 55 -17 124 -37 153 -45 39 -12 73 -14
135 -9 143 12 170 14 262 19 103 7 202 14 295 21 36 3 103 8 150 10 47 3 112
8 145 10 81 7 173 13 275 20 47 3 112 8 145 10 33 3 94 7 135 10 77 5 191 13
294 21 32 2 62 6 66 9 4 2 1 32 -6 65 -7 34 -15 78 -18 98 -3 20 -10 62 -15
92 -5 30 -26 147 -45 260 -20 113 -40 230 -46 260 -23 126 -50 277 -55 310 -2
19 -7 44 -9 55 -3 11 -5 28 -5 38 -1 9 -5 17 -11 17 -8 0 -459 -183 -555 -225
-61 -27 -195 -83 -195 -82 0 3 30 91 36 107 3 8 72 199 153 424 l148 409 153
89 c84 48 154 88 155 88 3 0 271 154 295 169 8 6 31 19 50 29 19 11 116 65
215 122 99 57 190 109 203 115 31 17 24 20 -94 44 -54 11 -162 34 -239 51 -77
17 -153 33 -170 36 -16 3 -50 10 -75 15 -25 6 -54 12 -65 15 -11 2 -94 19
-185 38 -91 20 -176 37 -190 40 -14 2 -69 14 -124 26 -54 12 -106 23 -115 25
-9 1 -63 13 -121 25 -58 12 -112 23 -120 25 -25 5 -499 105 -600 127 -52 11
-106 22 -120 24 -14 3 -86 18 -160 34 -198 42 -474 101 -830 175 -173 36 -344
72 -380 80 -353 76 -397 84 -411 71z"/>
<path d="M281 5776 c1 -142 6 -226 13 -235 8 -11 8 -13 0 -8 -7 4 -11 -6 -12
-26 -1 -24 3 -33 16 -35 21 -2 57 -10 57 -12 0 -1 9 -3 20 -5 11 -2 38 -8 60
-14 48 -12 151 -34 261 -57 l81 -17 -1 -1165 -1 -1166 -125 0 c-75 0 -128 -4
-132 -11 -5 -7 -8 -7 -8 0 0 6 -9 11 -20 12 -11 1 -19 -1 -16 -5 2 -4 -7 -7
-20 -7 -13 0 -24 5 -24 10 0 12 -20 -16 -20 -28 0 -5 6 -5 12 -1 10 6 11 4 1
-7 -19 -19 -16 -42 7 -57 11 -7 20 -18 20 -25 0 -6 -5 -4 -11 6 -12 21 -26 22
-26 2 0 -8 4 -15 9 -15 4 0 8 -5 8 -11 0 -5 -4 -7 -10 -4 -6 4 -10 -9 -10 -32
0 -28 3 -34 10 -23 6 9 10 10 10 3 0 -6 -4 -15 -10 -18 -5 -3 -9 -67 -9 -145
0 -126 1 -140 17 -141 9 0 680 -1 1491 -1 l1474 -1 51 54 c28 30 118 129 201
219 82 91 154 170 160 176 25 28 193 211 220 240 50 54 178 195 196 215 9 10
58 64 109 119 51 55 100 108 109 119 9 10 59 64 111 121 140 152 140 151 135
180 -2 14 -7 43 -10 65 -3 22 -10 65 -15 95 -9 53 -13 78 -25 165 -3 22 -9 63
-14 90 -5 28 -12 73 -16 100 -3 28 -17 115 -30 195 -13 80 -26 165 -30 190 -3
25 -15 99 -25 165 -11 66 -22 138 -25 160 -3 23 -7 50 -9 62 -3 11 -7 38 -10
59 -4 21 -10 41 -14 44 -4 4 -70 35 -147 70 -77 35 -185 85 -240 111 -55 25
-122 57 -150 69 -27 12 -97 45 -154 71 -57 27 -105 49 -106 49 -2 0 -59 26
-126 58 -68 33 -194 91 -279 130 l-155 71 -1413 -1 -1413 0 2 -222z m40 -283
c12 -16 12 -17 -2 -6 -9 7 -20 9 -24 5 -5 -4 -5 -1 -1 6 9 16 11 15 27 -5z
m136 -2505 c-3 -8 -6 -5 -6 6 -1 11 2 17 5 13 3 -3 4 -12 1 -19z m43 16 c0 -8
-19 -13 -24 -6 -3 5 1 9 9 9 8 0 15 -2 15 -3z m-67 -29 c-3 -9 -8 -14 -10 -11
-3 3 -2 9 2 15 9 16 15 13 8 -4z m41 -17 c-3 -4 -9 -8 -15 -8 -5 0 -9 4 -9 8
0 5 7 9 15 9 8 0 12 -4 9 -9z"/>
<path d="M6180 5953 c-190 -59 -273 -84 -285 -87 -5 -2 -17 -6 -25 -9 -8 -3
-46 -15 -85 -25 -38 -11 -127 -38 -196 -59 -115 -36 -129 -43 -165 -83 -21
-24 -50 -55 -64 -70 -38 -42 -173 -190 -193 -214 -10 -12 -53 -59 -95 -104
-42 -46 -83 -93 -91 -105 -13 -18 -15 -129 -15 -775 l-1 -754 45 -38 c79 -67
232 -193 315 -260 44 -35 82 -67 85 -70 3 -3 41 -35 85 -70 44 -35 96 -78 116
-94 19 -17 46 -40 60 -51 13 -11 60 -49 104 -85 44 -36 144 -119 223 -184
l143 -118 161 -34 c88 -19 175 -37 192 -40 17 -3 132 -25 256 -50 124 -25 236
-47 250 -50 14 -2 36 -7 50 -9 14 -3 39 -8 55 -11 17 -3 57 -11 90 -19 33 -7
76 -16 95 -19 19 -3 69 -12 110 -21 113 -25 151 -32 193 -39 15 -3 35 -7 45
-10 9 -3 28 -7 42 -10 23 -4 164 -30 220 -41 14 -2 37 -7 52 -11 18 -3 94 13
215 47 103 28 235 65 293 81 58 15 121 33 140 38 81 23 325 90 450 124 74 20
141 40 148 44 15 8 94 240 87 253 -3 4 -1 9 5 11 5 1 21 41 35 88 28 95 29
104 16 95 -5 -3 -12 -1 -16 4 -3 6 3 8 15 6 11 -2 22 0 25 5 3 5 -118 9 -291
10 -163 0 -299 2 -303 4 -3 2 -6 503 -6 1113 l0 1108 244 2 c134 1 248 6 252
10 4 4 10 31 13 58 3 28 10 75 16 105 15 86 18 106 40 245 12 72 25 147 29
168 5 20 6 39 2 41 -3 2 -688 4 -1521 3 l-1515 0 -145 -44z"/>
<path d="M6600 2137 c-144 -79 -285 -156 -350 -190 -38 -20 -284 -154 -470
-255 -73 -40 -279 -151 -360 -194 -36 -19 -174 -94 -308 -167 -227 -124 -244
-131 -275 -122 -46 14 -119 40 -142 51 -11 5 -175 68 -365 140 -190 72 -390
149 -445 170 -135 52 -516 198 -590 226 -33 12 -150 57 -260 99 -217 83 -384
145 -390 145 -8 0 156 -233 261 -370 573 -755 1224 -1206 1905 -1319 161 -27
230 -29 255 -7 10 8 150 116 309 238 160 123 306 235 325 250 19 15 112 86
205 158 94 71 177 136 185 143 8 7 30 23 48 36 36 25 56 55 122 176 24 44 62
114 85 155 24 41 57 102 75 135 18 33 87 159 155 280 139 251 158 286 153 289
-2 1 -59 -29 -128 -67z"/>
</g>
</svg>
